<?xml version="1.0" encoding="utf-8"?>
<!-- Generator: Adobe Illustrator 28.0.0, SVG Export Plug-In . SVG Version: 6.00 Build 0)  -->
<svg version="1.1" id="Camada_1" xmlns="http://www.w3.org/2000/svg" xmlns:xlink="http://www.w3.org/1999/xlink" x="0px" y="0px"
	 viewBox="0 0 104 96" style="enable-background:new 0 0 104 96;" xml:space="preserve">
<style type="text/css">
	.st0{clip-path:url(#SVGID_00000103960385540559414610000002354361788133365651_);}
	.st1{fill:url(#SVGID_00000090271263415621232590000015359270176343589526_);}
	.st2{fill:none;stroke:#C5E544;stroke-width:5;stroke-miterlimit:10;}
	.st3{fill:#42B4CA;stroke:url(#SVGID_00000176015763982481610460000005149792357082534803_);stroke-miterlimit:10;}
	.st4{fill:#42B4CA;stroke:url(#SVGID_00000119814532472231852090000005641942577865310368_);stroke-miterlimit:10;}
	.st5{fill:#42B4CA;stroke:url(#SVGID_00000110468497430070025340000012791280761516986012_);stroke-miterlimit:10;}
	.st6{fill:#42B4CA;stroke:url(#SVGID_00000160874957126055877580000016520694147199582642_);stroke-miterlimit:10;}
	.st7{fill:#C2E143;}
	.st8{fill:#42B4CA;}
	.st9{fill:url(#SVGID_00000143592866583588974850000003031606388563364028_);}
	.st10{fill:url(#SVGID_00000022553381776789915820000014712540623357677246_);}
	.st11{fill:url(#SVGID_00000105403370143589466330000013382323862630821787_);}
	.st12{fill:url(#SVGID_00000062901723956086499030000007603424200526055843_);}
	.st13{clip-path:url(#SVGID_00000147211667999800803140000006429760835028119686_);}
	.st14{fill:url(#SVGID_00000180352772986974626060000011221535916317471663_);}
	.st15{fill:url(#SVGID_00000139990435918920552200000009896277852232772772_);}
	.st16{fill:url(#SVGID_00000126286618227345119390000014736062325584216996_);}
	.st17{fill:url(#SVGID_00000168822871043926953310000000690609976273228428_);}
	.st18{fill:url(#SVGID_00000134937054198742677610000003922833281273343930_);}
	.st19{fill:url(#SVGID_00000013164214542097271940000013503504864412097727_);}
	.st20{fill:url(#SVGID_00000058587964036552464930000006531656409565937050_);}
	.st21{fill:url(#SVGID_00000067920777119277091830000005169044578942897313_);}
	.st22{fill:url(#SVGID_00000003096528877595133930000006442007843862624675_);}
	.st23{fill:none;stroke:#BFDE42;stroke-width:10;stroke-miterlimit:10;}
	.st24{fill:none;stroke:url(#SVGID_00000166648332957235020560000013563359637120580030_);stroke-width:4;stroke-miterlimit:10;}
	.st25{fill:none;stroke:url(#SVGID_00000067929444015983854650000008406321135471091637_);stroke-width:4;stroke-miterlimit:10;}
	.st26{fill:none;stroke:url(#SVGID_00000129890071367928297260000014624002858236678275_);stroke-width:4;stroke-miterlimit:10;}
	.st27{fill:none;stroke:url(#SVGID_00000100343296204327746880000015928173670932970119_);stroke-width:4;stroke-miterlimit:10;}
	.st28{fill:none;stroke:url(#SVGID_00000058555457174229575980000000607127250587143591_);stroke-width:4;stroke-miterlimit:10;}
	.st29{fill:none;stroke:url(#SVGID_00000178181205279295339200000013259889317378632635_);stroke-width:4;stroke-miterlimit:10;}
	.st30{fill:none;stroke:url(#SVGID_00000048490040572856726590000003089182968726526872_);stroke-width:4;stroke-miterlimit:10;}
	.st31{fill:none;stroke:url(#SVGID_00000145779667331871218090000014846895101774655158_);stroke-width:4;stroke-miterlimit:10;}
	.st32{fill:#BFDE42;stroke:#BFDE42;stroke-miterlimit:10;}
	.st33{fill:url(#SVGID_00000047764812617892212870000000775536258852142009_);}
	.st34{fill:url(#SVGID_00000125596565667296762010000011309123659304871304_);}
	.st35{fill:url(#SVGID_00000155147158339590189870000007969526437142983851_);}
	.st36{fill:url(#SVGID_00000036953871471683342230000008626902126361793949_);}
	.st37{fill:url(#SVGID_00000149370758048251000610000015109286276721523092_);}
	.st38{fill:url(#SVGID_00000075128761401690817050000018280919480956568478_);}
	.st39{fill:url(#SVGID_00000085965758350969406290000005713617649842362513_);}
	.st40{fill:url(#SVGID_00000029732331142106658490000004324390337344357780_);}
	.st41{fill:#BFDE42;}
	.st42{fill:#606060;}
</style>
<g>
	<g>
		<path class="st42" d="M9.75,80.39c-0.3-3.2,1.65-5.78,3.74-8.3c5.58-6.7,11.04-13.49,16.79-20.04c2.28-2.6,2.52-4.36,0.11-7.1
			c-6.22-7.07-12.21-14.34-18.07-21.72C7.79,17.52,9.3,10.09,15.29,7.07c4.3-2.17,9.13-1.31,12.56,2.75
			c8.9,10.51,17.73,21.09,26.41,31.79c3.75,4.62,3.63,9.19-0.17,13.85c-8.61,10.57-17.33,21.06-26.1,31.49
			c-3.22,3.82-7.68,4.92-11.76,3.3C12.24,88.66,9.8,85.07,9.75,80.39z"/>
	</g>
</g>
<g>
	<g>
		<path class="st42" d="M49.75,80.39c-0.3-3.2,1.65-5.78,3.74-8.3c5.58-6.7,11.04-13.49,16.79-20.04c2.28-2.6,2.52-4.36,0.11-7.1
			c-6.22-7.07-12.21-14.34-18.07-21.72c-4.54-5.72-3.03-13.14,2.96-16.16c4.3-2.17,9.13-1.31,12.56,2.75
			c8.9,10.51,17.73,21.09,26.41,31.79c3.75,4.62,3.63,9.19-0.17,13.85c-8.61,10.57-17.33,21.06-26.1,31.49
			c-3.22,3.82-7.68,4.92-11.76,3.3C52.24,88.66,49.8,85.07,49.75,80.39z"/>
	</g>
</g>
</svg>
