<?xml version="1.0" encoding="utf-8"?>
<!-- Generator: Adobe Illustrator 28.0.0, SVG Export Plug-In . SVG Version: 6.00 Build 0)  -->
<svg version="1.1" id="Camada_1" xmlns="http://www.w3.org/2000/svg" xmlns:xlink="http://www.w3.org/1999/xlink" x="0px" y="0px"
	 viewBox="0 0 96 96" style="enable-background:new 0 0 96 96;" xml:space="preserve">
<style type="text/css">
	.st0{clip-path:url(#SVGID_00000014623749203564325500000009662770218983149716_);}
	.st1{fill:url(#SVGID_00000072990359996257832730000015933843180015197599_);}
	.st2{fill:none;stroke:#C5E544;stroke-width:5;stroke-miterlimit:10;}
	.st3{fill:#42B4CA;stroke:url(#SVGID_00000145051267494062901270000010127120017312031106_);stroke-miterlimit:10;}
	.st4{fill:#42B4CA;stroke:url(#SVGID_00000048492237503823975580000012597594600359571629_);stroke-miterlimit:10;}
	.st5{fill:#42B4CA;stroke:url(#SVGID_00000183956790567527163960000017228683391605702071_);stroke-miterlimit:10;}
	.st6{fill:#42B4CA;stroke:url(#SVGID_00000178163124798198883430000001244022711674612887_);stroke-miterlimit:10;}
	.st7{fill:#C2E143;}
	.st8{fill:#42B4CA;}
	.st9{fill:url(#SVGID_00000101789783200893351940000017231414030207706022_);}
	.st10{fill:url(#SVGID_00000031893759228696186270000007569593179884825782_);}
	.st11{fill:url(#SVGID_00000086668477249600540610000007450254770487951018_);}
	.st12{fill:url(#SVGID_00000132785690984989191210000006446970253690222209_);}
	.st13{clip-path:url(#SVGID_00000128467589748653932990000016553445502253646000_);}
	.st14{fill:url(#SVGID_00000161603840739847710360000004446813885072022148_);}
	.st15{fill:url(#SVGID_00000033371064023377373520000004027730900971741587_);}
	.st16{fill:url(#SVGID_00000083807062385809779190000004971803119121390218_);}
	.st17{fill:url(#SVGID_00000101803478169724247920000005277347877623485840_);}
	.st18{fill:url(#SVGID_00000085945301148842878660000015393338346382332594_);}
	.st19{fill:url(#SVGID_00000006683041711479640500000005556255740560724406_);}
	.st20{fill:url(#SVGID_00000183969971213734549610000002928728325087260606_);}
	.st21{fill:url(#SVGID_00000122705733626367131150000015171588772347151241_);}
	.st22{fill:url(#SVGID_00000006677882408447685670000008463339054653619849_);}
	.st23{fill:none;stroke:#BFDE42;stroke-width:10;stroke-miterlimit:10;}
	.st24{fill:none;stroke:url(#SVGID_00000049900238081029709600000010669040839397296812_);stroke-width:4;stroke-miterlimit:10;}
	.st25{fill:none;stroke:url(#SVGID_00000098914001461380577260000000371553305521021102_);stroke-width:4;stroke-miterlimit:10;}
	.st26{fill:none;stroke:url(#SVGID_00000058552224205791438640000017645586310221349051_);stroke-width:4;stroke-miterlimit:10;}
	.st27{fill:none;stroke:url(#SVGID_00000055678734433889085700000002130256939968633011_);stroke-width:4;stroke-miterlimit:10;}
	.st28{fill:none;stroke:url(#SVGID_00000128449213269437400330000001070050750384692124_);stroke-width:4;stroke-miterlimit:10;}
	.st29{fill:none;stroke:url(#SVGID_00000065039365251328715900000014510093072756334267_);stroke-width:4;stroke-miterlimit:10;}
	.st30{fill:none;stroke:url(#SVGID_00000071534902432507904990000005151951671157632408_);stroke-width:4;stroke-miterlimit:10;}
	.st31{fill:none;stroke:url(#SVGID_00000090286060377432064950000010317403975698803075_);stroke-width:4;stroke-miterlimit:10;}
	.st32{fill:#BFDE42;stroke:#BFDE42;stroke-miterlimit:10;}
	.st33{fill:url(#SVGID_00000009576523005258818630000001666165948234306438_);}
	.st34{fill:url(#SVGID_00000109715891649261580640000008467323354338915005_);}
	.st35{fill:url(#SVGID_00000059281634164083943690000007422355207437142171_);}
	.st36{fill:url(#SVGID_00000181050388445858851600000010402043834796139447_);}
	.st37{fill:url(#SVGID_00000021079557271543722140000007795408359826628541_);}
	.st38{fill:url(#SVGID_00000005945548558358374180000001175097308137814920_);}
	.st39{fill:url(#SVGID_00000052802742479879136780000014543357132240963968_);}
	.st40{fill:url(#SVGID_00000174587896130327284050000007913476532759461538_);}
	.st41{fill:#BFDE42;}
	.st42{fill:#606060;}
	.st43{fill:#81D134;}
	.st44{fill:#C12B2B;}
	.st45{fill:#FDFDFD;}
	.st46{fill:#FFFFFF;}
</style>
<path class="st44" d="M48,4.99C24.28,4.99,5.02,24.22,4.99,47.93C4.97,71.7,24.2,90.98,47.97,91C71.7,91.03,90.98,71.78,91,48.04
	C91.02,24.28,71.77,5,48,4.99z"/>
<g>
	<path class="st45" d="M54.68,78.32c-1.54,3.35-4.2,3.7-6.41,0.74c-0.88,1.2-1.92,2.19-3.54,1.97c-1.56-0.22-2.39-1.3-2.88-2.72
		c-2.44,2.31-4.09,2.16-5.94-0.54c-0.34-0.5-0.55-0.28-0.92-0.17c-2.56,0.76-4.4-0.58-4.45-3.24c0-0.1,0-0.19,0-0.29
		c0-1.3,0.36-2.75-0.1-3.85c-0.52-1.23-2.25-0.75-3.41-1.2c-5.97-2.31-8.75-8.99-6.14-15.01c0.26-0.59,0.44-1.05,0.12-1.73
		c-6.05-12.45-0.96-26.44,11.14-33.46c12.75-7.4,29.45-4.99,39.16,5.61c7,7.65,8.65,18.25,4.25,27.62c-0.36,0.77-0.22,1.31,0.1,1.99
		c3.1,6.72-1.2,14.55-8.55,15.52c-0.86,0.11-1.17,0.38-1.13,1.22c0.04,1.15,0,2.3-0.02,3.46c-0.05,2.78-1.85,4.11-4.51,3.31
		c-0.4-0.12-0.58-0.25-0.89,0.24C58.84,80.51,57.09,80.65,54.68,78.32z M69.58,55.91c-0.01-4.93-4.09-9.03-8.99-9.03
		c-4.95,0-9.1,4.14-9.11,9.11c-0.02,4.88,4.11,8.99,9.02,9.02C64.62,65.03,69.79,61.3,69.58,55.91z M36.06,47.07
		c-5.44,0.12-9.23,3.94-9.19,9.1c0.05,5.28,5.19,9,9.38,8.84c4.83-0.18,8.85-4.33,8.76-9.14C44.92,50.9,40.9,46.96,36.06,47.07z
		 M43.6,67.96c0.01,2.82,1.67,4.02,3.94,3.15c0.62-0.24,1.06-0.09,1.61,0.11c1.98,0.69,3.58-0.41,3.72-2.5
		c0.15-2.12-1.13-4.39-3.01-5.35c-1.11-0.57-2.22-0.59-3.3,0.04C44.69,64.52,43.71,66.19,43.6,67.96z"/>
</g>
</svg>
