<?xml version="1.0" encoding="utf-8"?>
<!-- Generator: Adobe Illustrator 28.0.0, SVG Export Plug-In . SVG Version: 6.00 Build 0)  -->
<svg version="1.1" id="Camada_1" xmlns="http://www.w3.org/2000/svg" xmlns:xlink="http://www.w3.org/1999/xlink" x="0px" y="0px"
	 viewBox="0 0 96 96" style="enable-background:new 0 0 96 96;" xml:space="preserve">
<style type="text/css">
	.st0{clip-path:url(#SVGID_00000053545909496225450640000009373543952529306507_);}
	.st1{clip-path:url(#SVGID_00000152243936142270334100000006313122086180479911_);}
	.st2{fill:url(#SVGID_00000171721523082835884620000008500698279801537940_);}
	.st3{fill:none;stroke:#C5E544;stroke-width:5;stroke-miterlimit:10;}
	.st4{fill:#42B4CA;stroke:url(#SVGID_00000132795534251811228920000000062275545508105119_);stroke-miterlimit:10;}
	.st5{fill:#42B4CA;stroke:url(#SVGID_00000051367121720955759520000016995708447941716612_);stroke-miterlimit:10;}
	.st6{fill:#42B4CA;stroke:url(#SVGID_00000042704771698322257600000008510822369015269511_);stroke-miterlimit:10;}
	.st7{fill:#42B4CA;stroke:url(#SVGID_00000103978154307526030970000017270206146464786872_);stroke-miterlimit:10;}
	.st8{fill:#C2E143;}
	.st9{fill:#42B4CA;}
	.st10{fill:url(#SVGID_00000130604846100898648680000003456701321309848491_);}
	.st11{fill:url(#SVGID_00000172438936697198406950000010517022522587724217_);}
	.st12{fill:url(#SVGID_00000178901893248877480990000009620157749238956452_);}
	.st13{fill:url(#SVGID_00000183207808838351328410000002683362491285264001_);}
	.st14{clip-path:url(#SVGID_00000131335070509099590150000001126940714383511960_);}
	.st15{clip-path:url(#SVGID_00000129907977410518238740000005576232815934299824_);}
	.st16{fill:url(#SVGID_00000125597234551117833550000006539155652202646411_);}
	.st17{fill:url(#SVGID_00000132779070869158190170000013264912609592945300_);}
	.st18{fill:url(#SVGID_00000143607464971551490800000009753408065683069870_);}
	.st19{fill:url(#SVGID_00000103984889188709202260000004152238889387026600_);}
	.st20{fill:url(#SVGID_00000112610572199195731120000000956863758878705310_);}
	.st21{fill:url(#SVGID_00000090996294105668283890000008210255498461568147_);}
	.st22{fill:url(#SVGID_00000037667894288131681720000007097197193514684037_);}
	.st23{fill:url(#SVGID_00000062900754443208412560000017476824550532872358_);}
	.st24{fill:url(#SVGID_00000024695396045025218100000015449746147264480405_);}
	.st25{fill:none;stroke:#BFDE42;stroke-width:10;stroke-miterlimit:10;}
	.st26{fill:none;stroke:url(#SVGID_00000056396862056782017310000014779537039510834602_);stroke-width:4;stroke-miterlimit:10;}
	.st27{fill:none;stroke:url(#SVGID_00000147936856017494330020000001249204333394820792_);stroke-width:4;stroke-miterlimit:10;}
	.st28{fill:none;stroke:url(#SVGID_00000017495086307614507200000014736895490611904434_);stroke-width:4;stroke-miterlimit:10;}
	.st29{fill:none;stroke:url(#SVGID_00000169548082165111316890000014996537419811362739_);stroke-width:4;stroke-miterlimit:10;}
	.st30{fill:none;stroke:url(#SVGID_00000002385332313635155030000011368861424773707429_);stroke-width:4;stroke-miterlimit:10;}
	.st31{fill:none;stroke:url(#SVGID_00000064331235243627657650000011697645506256871059_);stroke-width:4;stroke-miterlimit:10;}
	.st32{fill:none;stroke:url(#SVGID_00000106109710706929093400000014631155399523633578_);stroke-width:4;stroke-miterlimit:10;}
	.st33{fill:none;stroke:url(#SVGID_00000116955730673915201320000017869149860364392597_);stroke-width:4;stroke-miterlimit:10;}
	.st34{fill:#BFDE42;stroke:#BFDE42;stroke-miterlimit:10;}
	.st35{fill:url(#SVGID_00000023264383918465361140000015780938988840231560_);}
	.st36{fill:url(#SVGID_00000060713414732768684680000018408959136060207513_);}
	.st37{fill:url(#SVGID_00000159463136360030979040000004688743016763653561_);}
	.st38{fill:url(#SVGID_00000149384391196870881920000018409221391118915723_);}
	.st39{fill:url(#SVGID_00000149372549526419330720000005235626378339132317_);}
	.st40{fill:url(#SVGID_00000054961839475478042040000010906919858029733255_);}
	.st41{fill:url(#SVGID_00000181791340486931797550000010188952676669686950_);}
	.st42{fill:url(#SVGID_00000034784330075845726570000003320798587908535944_);}
	.st43{fill:#BFDE42;}
	.st44{fill:#606060;}
	.st45{fill:#81D134;}
	.st46{fill:#C12B2B;}
	.st47{fill:#FDFDFD;}
	.st48{fill:#FFFFFF;}
	.st49{fill:#FFFFFF;stroke:#BFDE42;stroke-width:8;stroke-miterlimit:10;}
</style>
<g>
	<g>
		<path class="st9" d="M70.09,5.26c0.56,0,1.11,0,1.67,0c0.13,0.07,0.26,0.15,0.39,0.21c1.15,0.55,1.83,1.43,1.95,2.72
			c0.12,1.28-0.56,2.18-1.4,3.02c-6.16,6.15-12.32,12.3-18.47,18.46c-0.18,0.18-0.57,0.35-0.44,0.62c0.11,0.24,0.51,0.11,0.78,0.11
			c8.45,0.01,16.9,0.01,25.35,0c2.77,0,5.22,0.78,7.25,2.74c1.53,1.48,2.43,3.28,2.83,5.35c0,13.64,0,27.28,0,40.93
			c-0.04,0.14-0.08,0.29-0.11,0.43c-1,4.49-4.75,7.56-9.34,7.56c-21.23,0.01-42.45,0-63.68,0.01c-2.48,0-4.59-0.9-6.39-2.56
			c-1.6-1.47-2.51-3.33-2.93-5.44c0-13.64,0-27.28,0-40.93c0.24-1.13,0.57-2.24,1.18-3.24c1.98-3.26,4.92-4.84,8.71-4.85
			c8.58-0.02,17.16-0.01,25.74-0.01c0.2,0,0.49,0.1,0.59-0.11c0.11-0.23-0.18-0.35-0.32-0.49c-2.11-2.12-4.24-4.23-6.35-6.36
			c-1.17-1.18-2.46-2.27-3.49-3.58c-1.55-1.97-0.4-4.76,2.07-5.16c1.27-0.2,2.23,0.38,3.08,1.23c3.11,3.12,6.23,6.23,9.35,9.34
			c0.66,0.66,0.66,0.66,1.34-0.02c6.17-6.17,12.35-12.33,18.52-18.5C68.59,6.13,69.24,5.55,70.09,5.26z M40.85,80.95
			c3.51-0.05,7.02,0.05,10.53-0.13c2.61-0.14,5.22-0.27,7.76-0.94c2.71-0.71,5-1.99,6.33-4.6c0.67-1.31,1.07-2.71,1.35-4.13
			c0.61-3.11,0.76-6.28,0.8-9.44c0.04-2.97,0.05-5.94-0.12-8.91c-0.14-2.63-0.41-5.23-1.08-7.79c-0.98-3.8-3.41-6.05-7.16-6.99
			c-3.56-0.89-7.2-0.97-10.84-1.02c-6.25-0.08-12.5-0.13-18.74,0.11c-2.42,0.09-4.82,0.34-7.18,0.93c-3.49,0.87-5.99,2.82-7.09,6.35
			c-0.41,1.33-0.72,2.68-0.9,4.06c-0.55,4.25-0.56,8.53-0.51,12.8c0.04,3.42,0.22,6.83,0.86,10.21c0.93,4.86,3.39,7.42,8.21,8.52
			c2.46,0.56,4.95,0.7,7.45,0.83C33.96,80.99,37.41,80.9,40.85,80.95z M78.81,55.89c2.69-0.15,4.94-1.9,4.96-4.83
			c0.02-2.98-2.4-4.79-5.02-4.83c-2.65-0.04-4.79,2.19-4.77,4.85C74.01,53.76,76.16,55.91,78.81,55.89z M78.83,58.89
			c-2.74-0.01-4.85,2.09-4.85,4.81c0,2.68,2.14,4.81,4.81,4.8c2.75,0,4.97-2.14,4.98-4.8C83.79,61,81.62,58.9,78.83,58.89z"/>
	</g>
</g>
</svg>
