<?xml version="1.0" encoding="utf-8"?>
<!-- Generator: Adobe Illustrator 28.0.0, SVG Export Plug-In . SVG Version: 6.00 Build 0)  -->
<svg version="1.1" id="Camada_1" xmlns="http://www.w3.org/2000/svg" xmlns:xlink="http://www.w3.org/1999/xlink" x="0px" y="0px"
	 viewBox="0 0 96 96" style="enable-background:new 0 0 96 96;" xml:space="preserve">
<style type="text/css">
	.st0{clip-path:url(#SVGID_00000008828877181255843050000013239444917883539616_);}
	.st1{clip-path:url(#SVGID_00000044899529636319664790000015428079946080081035_);}
	.st2{fill:url(#SVGID_00000032641080981066908270000002437802365198753700_);}
	.st3{fill:none;stroke:#C5E544;stroke-width:5;stroke-miterlimit:10;}
	.st4{fill:#42B4CA;stroke:url(#SVGID_00000053512171196037719280000002426482430978802580_);stroke-miterlimit:10;}
	.st5{fill:#42B4CA;stroke:url(#SVGID_00000041287436280659301050000007979762770942107837_);stroke-miterlimit:10;}
	.st6{fill:#42B4CA;stroke:url(#SVGID_00000076575719766644799890000001557776727655939754_);stroke-miterlimit:10;}
	.st7{fill:#42B4CA;stroke:url(#SVGID_00000026139523740459451380000008149492692673734070_);stroke-miterlimit:10;}
	.st8{fill:#C2E143;}
	.st9{fill:#42B4CA;}
	.st10{fill:url(#SVGID_00000016039946354597574400000001585284653802110594_);}
	.st11{fill:url(#SVGID_00000125566510096344063420000011586859336407069570_);}
	.st12{fill:url(#SVGID_00000135665606367303184980000015967247732494122150_);}
	.st13{fill:url(#SVGID_00000118396778208832258200000001050214281012365460_);}
	.st14{clip-path:url(#SVGID_00000031209099112807763760000008731126195404654516_);}
	.st15{clip-path:url(#SVGID_00000096753950165835679990000011453676251304672442_);}
	.st16{fill:url(#SVGID_00000028307473961283184430000016369138228380648383_);}
	.st17{fill:url(#SVGID_00000030465352698893094190000011730162205781673367_);}
	.st18{fill:url(#SVGID_00000026855659206656696750000011137410355274872736_);}
	.st19{fill:url(#SVGID_00000162351105438093505020000006022882838525162896_);}
	.st20{fill:url(#SVGID_00000129891924262592389920000004423025112409594252_);}
	.st21{fill:url(#SVGID_00000065793525310665942510000011218029244246311828_);}
	.st22{fill:url(#SVGID_00000075152558186279706070000016195864454217104302_);}
	.st23{fill:url(#SVGID_00000171685219679189928040000007859800944125643139_);}
	.st24{fill:url(#SVGID_00000158020851284989283410000015055342745113280914_);}
	.st25{fill:none;stroke:#BFDE42;stroke-width:10;stroke-miterlimit:10;}
	.st26{fill:none;stroke:url(#SVGID_00000109028122294079097540000010636686935018119053_);stroke-width:4;stroke-miterlimit:10;}
	.st27{fill:none;stroke:url(#SVGID_00000035490884600757742660000006955204978633469114_);stroke-width:4;stroke-miterlimit:10;}
	.st28{fill:none;stroke:url(#SVGID_00000101079986264534732270000015308240088133399991_);stroke-width:4;stroke-miterlimit:10;}
	.st29{fill:none;stroke:url(#SVGID_00000014630852705292739160000001061909907282992519_);stroke-width:4;stroke-miterlimit:10;}
	.st30{fill:none;stroke:url(#SVGID_00000169517912423342358430000018238224614422054072_);stroke-width:4;stroke-miterlimit:10;}
	.st31{fill:none;stroke:url(#SVGID_00000099654053746553702760000008739661876834309309_);stroke-width:4;stroke-miterlimit:10;}
	.st32{fill:none;stroke:url(#SVGID_00000004538661879850393270000009175203675266647965_);stroke-width:4;stroke-miterlimit:10;}
	.st33{fill:none;stroke:url(#SVGID_00000121273813014323232900000011108601571188786352_);stroke-width:4;stroke-miterlimit:10;}
	.st34{fill:#BFDE42;stroke:#BFDE42;stroke-miterlimit:10;}
	.st35{fill:url(#SVGID_00000021804691848159856450000014259778171433460415_);}
	.st36{fill:url(#SVGID_00000161622391665591404270000008732231717150746516_);}
	.st37{fill:url(#SVGID_00000162342243793423950370000001087662943484338816_);}
	.st38{fill:url(#SVGID_00000005261489358500414660000003970832034584543381_);}
	.st39{fill:url(#SVGID_00000083791705818768655200000009735137975599141792_);}
	.st40{fill:url(#SVGID_00000083084508104364637470000006540527917348963214_);}
	.st41{fill:url(#SVGID_00000054241876652422379900000012495854713384888743_);}
	.st42{fill:url(#SVGID_00000027568523914486097260000010252392670916689553_);}
	.st43{fill:#BFDE42;}
	.st44{fill:#606060;}
	.st45{fill:#81D134;}
	.st46{fill:#C12B2B;}
	.st47{fill:#FDFDFD;}
	.st48{fill:#FFFFFF;}
	.st49{fill:#FFFFFF;stroke:#BFDE42;stroke-width:8;stroke-miterlimit:10;}
</style>
<g>
	<path class="st9" d="M63.8,22.71c1.66-1.59,3.29-3.15,5.05-4.83c-0.78,0.11-1.37,0.2-1.97,0.28c-2.75,0.35-4.99-1.35-5.61-4.09
		c-0.57-2.51,1.24-6.27,4.91-6.33c4.92-0.09,9.84-0.16,14.76-0.14C82.6,7.6,84.22,8,85.36,9.44c0.78,0.99,0.84,2.16,0.85,3.32
		c0.03,4.76,0.04,9.52,0.01,14.28c-0.02,2.68-1.34,4.49-3.59,5.09c-2.97,0.79-5.94-1.43-5.98-4.5c-0.02-1.13,0-2.27,0-3.6
		c-1.2,1.12-2.26,2.11-3.32,3.11c-0.65,0.62-1.27,1.27-1.96,1.85c-0.44,0.37-0.5,0.64-0.18,1.15c1.22,1.93,2.09,4.03,2.67,6.24
		C74.97,40.58,75,44.79,73.9,49c-1.93,7.39-6.32,12.84-13.04,16.4c-4.07,2.16-8.47,3.01-13.04,2.67c-2.14-0.16-4.25-0.69-6.56-1.09
		c1.88-1.13,3.54-2.06,5.12-3.1c2.12-1.4,3.93-3.16,5.53-5.14c0.25-0.31,0.64-0.62,1.02-0.71c6.07-1.6,9.96-5.41,11.47-11.5
		c2.1-8.52-3.72-17.18-12.38-18.57c-8.38-1.35-16.27,4.32-17.61,12.72c-0.64,4,0.26,7.71,2.5,11.08c0.09,0.13,0.16,0.27,0.27,0.45
		c-2.76,1.63-5.64,2.14-8.78,1.66c-1.35-0.21-1.97-0.85-2.38-2.09c-2.91-8.84-1.73-17.01,4.06-24.35c3.9-4.94,9.08-7.89,15.29-8.92
		c6.47-1.07,12.43,0.32,17.9,3.9c0.11,0.07,0.23,0.15,0.35,0.22C63.66,22.67,63.71,22.68,63.8,22.71z"/>
	<path class="st9" d="M25.54,81.02c-1.83,0-3.51,0.02-5.19-0.01c-1.99-0.03-3.57-0.83-4.54-2.63c-1.66-3.05,0.62-6.95,4.11-7
		c1.82-0.03,3.64,0,5.49,0c0-1.9,0-3.74,0-5.64c-7.79-1.93-13.57-6.45-17.04-13.71c-2.71-5.66-3.04-11.6-1.24-17.59
		c3.28-10.93,14.95-19.73,28.76-16.88c-0.17,0.14-0.29,0.27-0.43,0.35c-4.1,2.3-7.46,5.4-10.07,9.3c-0.2,0.29-0.53,0.55-0.85,0.7
		c-4.46,2.17-7.41,5.58-8.51,10.46c-1.88,8.38,3.58,16.55,12.04,18.11c8.44,1.56,16.68-4.6,17.59-13.08
		c0.36-3.34-0.31-6.4-1.95-9.29c-0.11-0.18-0.19-0.38-0.32-0.62c1.94-1.26,4.03-1.9,6.3-1.78c1.13,0.06,2.25,0.31,3.35,0.54
		c0.25,0.05,0.53,0.36,0.63,0.62c3.79,9.77,0.8,21.1-7.31,27.74c-3.09,2.53-6.56,4.28-10.49,5.08c-0.26,0.05-0.51,0.15-0.79,0.24
		c0,1.8,0,3.59,0,5.46c1.96,0,3.89-0.01,5.81,0c2.08,0.01,4.01,1.47,4.56,3.42c0.89,3.19-1.36,6.11-4.79,6.2
		c-1.6,0.04-3.21,0.01-4.82,0.01c-0.24,0-0.48,0-0.82,0c0,1.42,0.03,2.77-0.01,4.12c-0.07,2.42-2.11,4.33-4.66,4.4
		c-2.46,0.07-4.64-1.77-4.79-4.13C25.47,83.98,25.54,82.54,25.54,81.02z"/>
</g>
</svg>
