<?xml version="1.0" encoding="utf-8"?>
<!-- Generator: Adobe Illustrator 28.0.0, SVG Export Plug-In . SVG Version: 6.00 Build 0)  -->
<svg version="1.1" id="Camada_1" xmlns="http://www.w3.org/2000/svg" xmlns:xlink="http://www.w3.org/1999/xlink" x="0px" y="0px"
	 viewBox="0 0 96 96" style="enable-background:new 0 0 96 96;" xml:space="preserve">
<style type="text/css">
	.st0{clip-path:url(#SVGID_00000101822204310250120140000015582664651248847770_);}
	.st1{clip-path:url(#SVGID_00000127002082537051041760000002877796574823935626_);}
	.st2{fill:url(#SVGID_00000017508376995736422870000011269513098833044369_);}
	.st3{fill:none;stroke:#C5E544;stroke-width:5;stroke-miterlimit:10;}
	.st4{fill:#42B4CA;stroke:url(#SVGID_00000013182270164056269980000012822421846460839600_);stroke-miterlimit:10;}
	.st5{fill:#42B4CA;stroke:url(#SVGID_00000017513369301046619900000002966739254384031926_);stroke-miterlimit:10;}
	.st6{fill:#42B4CA;stroke:url(#SVGID_00000179625350270392466350000002207576302203145115_);stroke-miterlimit:10;}
	.st7{fill:#42B4CA;stroke:url(#SVGID_00000139995668891215457470000008890563476341181883_);stroke-miterlimit:10;}
	.st8{fill:#C2E143;}
	.st9{fill:#42B4CA;}
	.st10{fill:url(#SVGID_00000128472656162893998380000006524044885837466011_);}
	.st11{fill:url(#SVGID_00000007419136730920649460000001517694370697433216_);}
	.st12{fill:url(#SVGID_00000179620000167404266410000006989168031447941011_);}
	.st13{fill:url(#SVGID_00000132811137980229682470000000042346563103993229_);}
	.st14{clip-path:url(#SVGID_00000071555773045707859900000002265992692115935919_);}
	.st15{clip-path:url(#SVGID_00000152223007580280261800000009861744120164848560_);}
	.st16{fill:url(#SVGID_00000031905615717981346290000007288343504585799865_);}
	.st17{fill:url(#SVGID_00000075853790973472201740000017601023672798802097_);}
	.st18{fill:url(#SVGID_00000130630725356848225450000017557260601095315364_);}
	.st19{fill:url(#SVGID_00000034051345536698965470000003542213558046297510_);}
	.st20{fill:url(#SVGID_00000160899501199523066010000002740075184873690038_);}
	.st21{fill:url(#SVGID_00000164478774045724176870000000547077204357724544_);}
	.st22{fill:url(#SVGID_00000009574622458867420780000000958614424192829083_);}
	.st23{fill:url(#SVGID_00000146494327052607982160000015926836466915073720_);}
	.st24{fill:url(#SVGID_00000026164590561779737810000000447684504316748461_);}
	.st25{fill:none;stroke:#BFDE42;stroke-width:10;stroke-miterlimit:10;}
	.st26{fill:none;stroke:url(#SVGID_00000158021479727796555570000007561090518584524162_);stroke-width:4;stroke-miterlimit:10;}
	.st27{fill:none;stroke:url(#SVGID_00000093152949978941231470000014029198454722610591_);stroke-width:4;stroke-miterlimit:10;}
	.st28{fill:none;stroke:url(#SVGID_00000159470208720476718890000005220444681076318643_);stroke-width:4;stroke-miterlimit:10;}
	.st29{fill:none;stroke:url(#SVGID_00000056398654127259085660000000318344929113394333_);stroke-width:4;stroke-miterlimit:10;}
	.st30{fill:none;stroke:url(#SVGID_00000033349563176016957950000013051014114482674059_);stroke-width:4;stroke-miterlimit:10;}
	.st31{fill:none;stroke:url(#SVGID_00000112633307284265962870000004818955959220104086_);stroke-width:4;stroke-miterlimit:10;}
	.st32{fill:none;stroke:url(#SVGID_00000080182182048740331800000004093250002012378810_);stroke-width:4;stroke-miterlimit:10;}
	.st33{fill:none;stroke:url(#SVGID_00000142149514617342232750000008636304499911640511_);stroke-width:4;stroke-miterlimit:10;}
	.st34{fill:#BFDE42;stroke:#BFDE42;stroke-miterlimit:10;}
	.st35{fill:url(#SVGID_00000075163936661394453240000002827954176222536345_);}
	.st36{fill:url(#SVGID_00000171677968491615689000000008244960625746848684_);}
	.st37{fill:url(#SVGID_00000160904190549417661840000001596005254021432744_);}
	.st38{fill:url(#SVGID_00000052794575766936811370000009697422192674804869_);}
	.st39{fill:url(#SVGID_00000116196142291820913820000016375762717963434393_);}
	.st40{fill:url(#SVGID_00000070818172143668140030000002808328099873405851_);}
	.st41{fill:url(#SVGID_00000136393408764363943160000017232466211825911688_);}
	.st42{fill:url(#SVGID_00000015344509183210831350000004325619778668589722_);}
	.st43{fill:#BFDE42;}
	.st44{fill:#606060;}
	.st45{fill:#81D134;}
	.st46{fill:#C12B2B;}
	.st47{fill:#FDFDFD;}
	.st48{fill:#FFFFFF;}
	.st49{fill:#FFFFFF;stroke:#BFDE42;stroke-width:8;stroke-miterlimit:10;}
</style>
<g>
	<path class="st9" d="M48.12,16.59c8.16,0.17,15.31,2.88,21.35,8.43c1.28,1.18,2.46,2.44,3.53,3.81c0.25,0.32,0.44,0.44,0.71,0.04
		c2.8-4.11,5.64-8.2,7.26-12.97c0.07-0.2,0.27-0.45,0.04-0.64c-0.2-0.17-0.44,0.01-0.65,0.08c-2.66,0.79-5.04,2.16-7.36,3.64
		c-0.75,0.48-1.25,0.51-1.96-0.1c-1.65-1.42-3.53-2.52-5.42-3.58c-0.46-0.26-0.66-0.48-0.11-0.85c4.37-2.91,8.79-5.72,13.98-6.96
		c2.26-0.54,4.54-0.59,6.62,0.75c1.89,1.22,2.82,3.02,2.95,5.22c0.19,3.17-0.94,6.03-2.28,8.8c-2.93,6.08-6.84,11.53-10.99,16.81
		c-6.91,8.8-14.58,16.9-22.69,24.59c-5.65,5.36-11.53,10.45-17.77,15.11c-3.62,2.7-7.33,5.27-11.32,7.39
		c-2.66,1.41-5.4,2.64-8.41,3.15c-3.38,0.57-6.38-0.68-7.77-3.28c-1.06-1.98-0.97-4.07-0.53-6.17c0.64-3.06,2.04-5.83,3.52-8.55
		c1.01-1.85,2.17-3.62,3.33-5.38c0.42-0.63,0.66-0.56,1,0.06c1.06,1.96,2.24,3.85,3.68,5.56c0.43,0.51,0.41,0.9,0.07,1.45
		c-1.48,2.38-2.88,4.82-3.73,7.52c-0.08,0.26-0.35,0.57-0.08,0.8c0.24,0.21,0.55-0.01,0.81-0.1c2.67-0.84,5.06-2.27,7.43-3.7
		c1.76-1.06,3.47-2.19,5.15-3.38c0.44-0.32,0.61-0.49,0.06-0.93c-6.61-5.26-10.66-12.07-11.76-20.45
		c-1.46-11.14,2.02-20.62,10.34-28.18c5.21-4.73,11.42-7.35,18.49-7.86C46.45,16.68,47.28,16.55,48.12,16.59z M25.57,51.14
		c1.76,0,2.91-1.1,2.97-2.92c0.04-1.13,0.07-2.25,0.29-3.36c0.76-3.93,2.45-7.37,5.26-10.25c1.41-1.44,1.42-3.18,0.08-4.44
		c-1.2-1.13-2.93-0.98-4.22,0.4c-0.89,0.95-1.74,1.93-2.49,3c-3.11,4.41-4.7,9.3-4.68,14.69C22.78,49.92,23.98,51.14,25.57,51.14z"
		/>
	<path class="st9" d="M79.71,47.78c-0.12,6.6-1.65,12.24-4.9,17.39c-4.03,6.38-9.63,10.77-16.76,13.19
		c-4.27,1.45-8.67,1.93-13.16,1.48c-0.31-0.03-0.74,0.01-0.85-0.3c-0.11-0.34,0.31-0.51,0.54-0.7c6.85-5.57,13.34-11.53,19.5-17.85
		c5.07-5.2,9.95-10.56,14.51-16.22c0.18-0.22,0.3-0.67,0.68-0.52c0.29,0.11,0.23,0.5,0.24,0.78C79.54,46.14,79.76,47.23,79.71,47.78
		z"/>
</g>
</svg>
