<?xml version="1.0" encoding="utf-8"?>
<!-- Generator: Adobe Illustrator 28.0.0, SVG Export Plug-In . SVG Version: 6.00 Build 0)  -->
<svg version="1.1" id="Camada_1" xmlns="http://www.w3.org/2000/svg" xmlns:xlink="http://www.w3.org/1999/xlink" x="0px" y="0px"
	 viewBox="0 0 96 96" style="enable-background:new 0 0 96 96;" xml:space="preserve">
<style type="text/css">
	.st0{clip-path:url(#SVGID_00000107578204644050482590000007434432201068350856_);}
	.st1{clip-path:url(#SVGID_00000176728626504893026380000016387752378172973976_);}
	.st2{fill:url(#SVGID_00000039819515721486877550000009525512616637448639_);}
	.st3{fill:none;stroke:#C5E544;stroke-width:5;stroke-miterlimit:10;}
	.st4{fill:#42B4CA;stroke:url(#SVGID_00000079458523365505983790000003515961139236545160_);stroke-miterlimit:10;}
	.st5{fill:#42B4CA;stroke:url(#SVGID_00000018198024516342588720000013472806902576874154_);stroke-miterlimit:10;}
	.st6{fill:#42B4CA;stroke:url(#SVGID_00000151515028181766161810000013303959471453727386_);stroke-miterlimit:10;}
	.st7{fill:#42B4CA;stroke:url(#SVGID_00000107556518825816369560000001756351284373662096_);stroke-miterlimit:10;}
	.st8{fill:#C2E143;}
	.st9{fill:#42B4CA;}
	.st10{fill:url(#SVGID_00000137838890660020765450000003680457058604298396_);}
	.st11{fill:url(#SVGID_00000157279665132501380000000002654506042593938104_);}
	.st12{fill:url(#SVGID_00000099636131848160532120000004367915320335566494_);}
	.st13{fill:url(#SVGID_00000071535537579423123340000012207274064798022544_);}
	.st14{clip-path:url(#SVGID_00000057132837488973583500000012516516663198610102_);}
	.st15{clip-path:url(#SVGID_00000129909270093215526610000014099171708329021075_);}
	.st16{fill:url(#SVGID_00000137115132452941978030000012657892138033121162_);}
	.st17{fill:url(#SVGID_00000174575779902735182760000012504434915562760375_);}
	.st18{fill:url(#SVGID_00000117654975752183933330000007291825758534839195_);}
	.st19{fill:url(#SVGID_00000071553004828836005730000014123840630929215377_);}
	.st20{fill:url(#SVGID_00000102517664617528527510000007394859913208600198_);}
	.st21{fill:url(#SVGID_00000148655876102588374360000003578353809502451354_);}
	.st22{fill:url(#SVGID_00000170239987939398403460000014110464019730317476_);}
	.st23{fill:url(#SVGID_00000020356756755258053640000005092358767534974625_);}
	.st24{fill:url(#SVGID_00000031900171973386150300000007895560226531268250_);}
	.st25{fill:none;stroke:#BFDE42;stroke-width:10;stroke-miterlimit:10;}
	.st26{fill:none;stroke:url(#SVGID_00000131361137016840782660000006316335555640064399_);stroke-width:4;stroke-miterlimit:10;}
	.st27{fill:none;stroke:url(#SVGID_00000088849526545684849340000014868528829836870334_);stroke-width:4;stroke-miterlimit:10;}
	.st28{fill:none;stroke:url(#SVGID_00000008828386632183497110000003523659739405570438_);stroke-width:4;stroke-miterlimit:10;}
	.st29{fill:none;stroke:url(#SVGID_00000070107236846509570520000016345851618659498389_);stroke-width:4;stroke-miterlimit:10;}
	.st30{fill:none;stroke:url(#SVGID_00000047052191916175003330000011254965721053182899_);stroke-width:4;stroke-miterlimit:10;}
	.st31{fill:none;stroke:url(#SVGID_00000112610875402843786280000014298043963683807929_);stroke-width:4;stroke-miterlimit:10;}
	.st32{fill:none;stroke:url(#SVGID_00000063614614571651838070000015056879085696305817_);stroke-width:4;stroke-miterlimit:10;}
	.st33{fill:none;stroke:url(#SVGID_00000069397326047408502260000012591993517394135940_);stroke-width:4;stroke-miterlimit:10;}
	.st34{fill:#BFDE42;stroke:#BFDE42;stroke-miterlimit:10;}
	.st35{fill:url(#SVGID_00000067928632513192869930000018399462559400579517_);}
	.st36{fill:url(#SVGID_00000170987050097324696170000017928317644580269753_);}
	.st37{fill:url(#SVGID_00000155108273650214899530000018136063583933024915_);}
	.st38{fill:url(#SVGID_00000072261307890410822910000001648300627429191081_);}
	.st39{fill:url(#SVGID_00000166640878596996796540000011569265527168608901_);}
	.st40{fill:url(#SVGID_00000059280328548197925440000012709520710118019228_);}
	.st41{fill:url(#SVGID_00000072242232407361428930000018097218487088333237_);}
	.st42{fill:url(#SVGID_00000183950534640642804300000011608627881930403228_);}
	.st43{fill:#BFDE42;}
	.st44{fill:#606060;}
	.st45{fill:#81D134;}
	.st46{fill:#C12B2B;}
	.st47{fill:#FDFDFD;}
	.st48{fill:#FFFFFF;}
	.st49{fill:#FFFFFF;stroke:#BFDE42;stroke-width:8;stroke-miterlimit:10;}
</style>
<g>
	<path class="st9" d="M47.35,26.01c11.11,0,22.22-0.01,33.33,0.01c2.66,0,4.65,1.62,5.06,3.99c0.51,2.95-1.74,5.6-4.87,5.61
		c-5.98,0.03-11.96,0.01-17.95,0c-3.65-0.01-5.66,1.61-5.52,5.26c0.15,4.19,0.69,8.39,1.38,12.54c1.92,11.42,4.01,22.81,6.01,34.21
		c0.46,2.6-1.32,5.18-3.81,5.64c-2.66,0.49-5.15-1.22-5.64-3.97c-1.48-8.19-2.89-16.4-4.42-24.58c-0.27-1.44-0.83-2.88-1.51-4.19
		c-1.17-2.26-3.02-2.31-4.13,0.01c-0.91,1.89-1.53,3.99-1.92,6.06c-1.41,7.45-2.65,14.92-3.98,22.38c-0.53,3-2.8,4.74-5.52,4.31
		c-2.73-0.43-4.42-3.01-3.91-5.98c2.39-13.72,4.84-27.43,7.12-41.17c0.37-2.22,0.27-4.6-0.07-6.83c-0.4-2.62-1.98-3.66-4.63-3.66
		c-6.2-0.01-12.39,0.01-18.59-0.02c-2.27-0.01-4.08-1.38-4.71-3.42c-0.61-1.95,0.1-4.23,1.95-5.31c0.96-0.56,2.2-0.84,3.32-0.85
		C25.35,25.99,36.35,26.01,47.35,26.01z"/>
	<path class="st9" d="M37.73,13.22c0-5.39,4.26-9.66,9.64-9.66c5.26-0.01,9.59,4.31,9.6,9.55c0,5.33-4.32,9.67-9.65,9.68
		C42.07,22.8,37.73,18.46,37.73,13.22z"/>
</g>
</svg>
