<?xml version="1.0" encoding="utf-8"?>
<!-- Generator: Adobe Illustrator 28.0.0, SVG Export Plug-In . SVG Version: 6.00 Build 0)  -->
<svg version="1.1" id="Camada_1" xmlns="http://www.w3.org/2000/svg" xmlns:xlink="http://www.w3.org/1999/xlink" x="0px" y="0px"
	 viewBox="0 0 96 96" style="enable-background:new 0 0 96 96;" xml:space="preserve">
<style type="text/css">
	.st0{clip-path:url(#SVGID_00000123412595104014911570000015463689704730226312_);}
	.st1{clip-path:url(#SVGID_00000182503676064243381070000012816340386540900739_);}
	.st2{fill:url(#SVGID_00000101818418221126221290000016222893628064321457_);}
	.st3{fill:none;stroke:#C5E544;stroke-width:5;stroke-miterlimit:10;}
	.st4{fill:#42B4CA;stroke:url(#SVGID_00000134941622681332104800000010926803192139921826_);stroke-miterlimit:10;}
	.st5{fill:#42B4CA;stroke:url(#SVGID_00000050620765490716214640000001683105977112199556_);stroke-miterlimit:10;}
	.st6{fill:#42B4CA;stroke:url(#SVGID_00000091700364602376818130000008038404294291369617_);stroke-miterlimit:10;}
	.st7{fill:#42B4CA;stroke:url(#SVGID_00000118386430649591455370000006563845323002814090_);stroke-miterlimit:10;}
	.st8{fill:#C2E143;}
	.st9{fill:#42B4CA;}
	.st10{fill:url(#SVGID_00000116220320099496382010000007684815441727322551_);}
	.st11{fill:url(#SVGID_00000032609934570001818210000012172251818944366741_);}
	.st12{fill:url(#SVGID_00000075864399445869007450000004767817651273842574_);}
	.st13{fill:url(#SVGID_00000075865273864514269680000002523485014813397393_);}
	.st14{clip-path:url(#SVGID_00000072978390192425569950000000719421854429332409_);}
	.st15{clip-path:url(#SVGID_00000105402077328639623680000002991941357424090044_);}
	.st16{fill:url(#SVGID_00000091722373533985602490000016457962606174704290_);}
	.st17{fill:url(#SVGID_00000024700753535610229040000001809644782079489423_);}
	.st18{fill:url(#SVGID_00000033365713931304392720000007687882512109515710_);}
	.st19{fill:url(#SVGID_00000183216869778645246840000011288183864876876457_);}
	.st20{fill:url(#SVGID_00000147202208525525191060000016919529540213805227_);}
	.st21{fill:url(#SVGID_00000044895585901967644580000004475451958253336767_);}
	.st22{fill:url(#SVGID_00000101806580897533812670000002480065349557955209_);}
	.st23{fill:url(#SVGID_00000166646433372203821430000013830927857638595260_);}
	.st24{fill:url(#SVGID_00000047046234135357035170000000803034251534362047_);}
	.st25{fill:none;stroke:#BFDE42;stroke-width:10;stroke-miterlimit:10;}
	.st26{fill:none;stroke:url(#SVGID_00000177452863121404584980000002738401907962719628_);stroke-width:4;stroke-miterlimit:10;}
	.st27{fill:none;stroke:url(#SVGID_00000003785524041487346540000015262947514624186020_);stroke-width:4;stroke-miterlimit:10;}
	.st28{fill:none;stroke:url(#SVGID_00000037688506383117600040000001591543381362755989_);stroke-width:4;stroke-miterlimit:10;}
	.st29{fill:none;stroke:url(#SVGID_00000088125721895631674920000009225667270377749148_);stroke-width:4;stroke-miterlimit:10;}
	.st30{fill:none;stroke:url(#SVGID_00000101789971834456940170000005341151621767431834_);stroke-width:4;stroke-miterlimit:10;}
	.st31{fill:none;stroke:url(#SVGID_00000093871347708598076440000013328949419615494060_);stroke-width:4;stroke-miterlimit:10;}
	.st32{fill:none;stroke:url(#SVGID_00000008107671802001702800000001717974837405113984_);stroke-width:4;stroke-miterlimit:10;}
	.st33{fill:none;stroke:url(#SVGID_00000180338061789876284540000005875189430325600700_);stroke-width:4;stroke-miterlimit:10;}
	.st34{fill:#BFDE42;stroke:#BFDE42;stroke-miterlimit:10;}
	.st35{fill:url(#SVGID_00000027589527767234628950000008852649145805966231_);}
	.st36{fill:url(#SVGID_00000174596185226560219210000011638093692404872878_);}
	.st37{fill:url(#SVGID_00000020384395105748959680000002409141381557414023_);}
	.st38{fill:url(#SVGID_00000001662098197512827980000016104331996765250705_);}
	.st39{fill:url(#SVGID_00000074406064097003670710000015966358112607494286_);}
	.st40{fill:url(#SVGID_00000126292095979784491500000014520393440267268229_);}
	.st41{fill:url(#SVGID_00000156546294854677928460000009822424042185122689_);}
	.st42{fill:url(#SVGID_00000129923647425618074600000000085066214674215356_);}
	.st43{fill:#BFDE42;}
	.st44{fill:#606060;}
	.st45{fill:#81D134;}
	.st46{fill:#C12B2B;}
	.st47{fill:#FDFDFD;}
	.st48{fill:#FFFFFF;}
	.st49{fill:#FFFFFF;stroke:#BFDE42;stroke-width:8;stroke-miterlimit:10;}
</style>
<g>
	<g>
		<path class="st9" d="M25.16,91.92c-1.74-0.34-3.34-0.97-4.79-2.02c-4.92-3.58-6.04-10.49-2.37-15.37
			c2.64-3.5,6.22-4.96,10.59-4.34c0.52,0.07,0.81-0.05,1.1-0.52c2.73-4.43,5.22-8.99,7.84-13.48c0.34-0.58,0.27-0.9-0.16-1.39
			c-4.39-4.88-4.68-11.57-0.77-16.83c0.28-0.37,0.3-0.61,0.02-1c-1.74-2.36-3.4-4.77-5.2-7.09c-0.99-1.27-1.96-2.56-2.91-3.86
			c-0.33-0.44-0.67-0.51-1.17-0.38c-3.13,0.81-6.07,0.31-8.72-1.49c-2.7-1.83-4.26-4.41-4.66-7.67c-0.61-5.01,2.52-9.79,7.21-11.32
			c3.33-1.09,6.51-0.61,9.53,1.28c4.98,3.12,6.19,10.17,2.96,14.81c-0.23,0.33-0.24,0.58,0,0.91c2.69,3.69,5.38,7.38,8.05,11.08
			c0.27,0.38,0.54,0.45,0.98,0.3c3.94-1.34,7.7-0.92,11.25,1.24c0.34,0.21,0.59,0.2,0.9-0.09c2.23-2,4.47-4,6.72-5.98
			c0.37-0.32,0.32-0.66,0.17-1.04c-0.42-1.04-0.64-2.12-0.73-3.24c-0.23-3.02,0.69-5.64,2.62-7.93c2.15-2.55,4.99-3.87,8.26-3.87
			c5.14,0,9.24,3.28,10.6,7.82c1.21,4.02,0.3,7.63-2.48,10.69c-1.86,2.05-4.24,3.21-7.06,3.44c-2.22,0.18-4.3-0.2-6.24-1.3
			c-0.35-0.2-0.59-0.18-0.9,0.1c-2.24,2.03-4.49,4.04-6.76,6.04c-0.28,0.25-0.37,0.44-0.19,0.8c1.45,3.04,1.66,6.19,0.76,9.42
			c-0.11,0.4-0.03,0.62,0.31,0.84c2.73,1.76,5.46,3.53,8.18,5.31c0.42,0.28,0.77,0.25,1.19-0.01c5.33-3.23,12.21,0,13.15,6.17
			c0.7,4.61-2.47,9.09-7.07,9.88c-5.34,0.92-9.84-2.94-10.27-7.74c-0.06-0.64-0.08-1.27,0.02-1.9c0.09-0.53-0.09-0.88-0.56-1.18
			c-2.68-1.71-5.36-3.44-8.01-5.2c-0.52-0.35-0.82-0.13-1.18,0.17c-1.86,1.55-3.99,2.52-6.39,2.87c-1.61,0.24-3.22,0.23-4.8-0.17
			c-0.49-0.13-0.78-0.06-1.05,0.41c-2.62,4.63-5.25,9.24-7.91,13.85c-0.24,0.42-0.06,0.66,0.18,0.96c1.88,2.27,2.72,4.87,2.61,7.82
			c-0.14,3.99-3.23,8.21-7.01,9.51c-0.8,0.27-1.62,0.45-2.43,0.67C27.43,91.92,26.29,91.92,25.16,91.92z M38.11,42.18
			c-0.02,0.93,0.21,1.78,1.11,2.17c0.89,0.39,1.65-0.01,2.25-0.69c1.07-1.21,2.25-2.3,3.41-3.42c0.58-0.56,0.96-1.25,0.6-2.08
			c-0.36-0.82-1.07-1.14-1.93-1.16c-1.02-0.03-1.93,0.32-2.73,0.92C39.37,38.99,38.26,40.29,38.11,42.18z M64.48,20.69
			c0.01,0.76,0.42,1.47,1.03,1.71c0.71,0.28,1.28-0.1,1.7-0.56c0.95-1.01,1.91-2,2.94-2.93c0.52-0.47,0.76-1.09,0.44-1.79
			c-0.31-0.68-0.95-0.91-1.63-0.93C66.95,16.14,64.46,18.66,64.48,20.69z M19.43,77.92c-0.01,0.87,0.3,1.55,0.89,1.77
			c0.76,0.29,1.38-0.02,1.89-0.58c0.92-1,1.89-1.95,2.88-2.88c0.48-0.46,0.76-1.04,0.45-1.72c-0.31-0.67-0.92-0.93-1.61-0.95
			C21.87,73.52,19.46,75.87,19.43,77.92z M17.38,12.37c-0.04,0.66,0.17,1.31,0.88,1.62c0.72,0.32,1.35,0,1.83-0.54
			c0.86-0.97,1.78-1.86,2.74-2.73c0.53-0.48,0.71-1.1,0.47-1.8c-0.18-0.5-0.97-0.91-1.64-0.9C19.7,8.05,17.42,10.34,17.38,12.37z
			 M71.36,57.43c-0.82-0.1-1.49,0.36-2.1,0.92c-0.68,0.62-1.25,1.33-1.34,2.29c-0.06,0.62,0.07,1.18,0.68,1.51
			c0.6,0.32,1.04,0.01,1.44-0.39c0.76-0.75,1.51-1.5,2.26-2.26c0.4-0.4,0.62-0.84,0.38-1.4C72.44,57.56,71.98,57.42,71.36,57.43z"/>
	</g>
</g>
</svg>
