<?xml version="1.0" encoding="utf-8"?>
<!-- Generator: Adobe Illustrator 28.0.0, SVG Export Plug-In . SVG Version: 6.00 Build 0)  -->
<svg version="1.1" id="Camada_1" xmlns="http://www.w3.org/2000/svg" xmlns:xlink="http://www.w3.org/1999/xlink" x="0px" y="0px"
	 viewBox="0 0 96 96" style="enable-background:new 0 0 96 96;" xml:space="preserve">
<style type="text/css">
	.st0{clip-path:url(#SVGID_00000181080923534158476750000013449683420231818679_);}
	.st1{fill:url(#SVGID_00000054262613056691617060000003125999585926001067_);}
	.st2{fill:none;stroke:#C5E544;stroke-width:5;stroke-miterlimit:10;}
	.st3{fill:#42B4CA;stroke:url(#SVGID_00000093178659016888005870000007872299236018399927_);stroke-miterlimit:10;}
	.st4{fill:#42B4CA;stroke:url(#SVGID_00000179614714793430331310000001356800461249427389_);stroke-miterlimit:10;}
	.st5{fill:#42B4CA;stroke:url(#SVGID_00000101819697121817510560000005629661855865376690_);stroke-miterlimit:10;}
	.st6{fill:#42B4CA;stroke:url(#SVGID_00000177448844322790811510000003121669107154499214_);stroke-miterlimit:10;}
	.st7{fill:#C2E143;}
	.st8{fill:#42B4CA;}
	.st9{fill:url(#SVGID_00000032618269022856389310000014779139387479188356_);}
	.st10{fill:url(#SVGID_00000116208515907298263550000011140023799405985721_);}
	.st11{fill:url(#SVGID_00000018221024119593947950000011604870143680852922_);}
	.st12{fill:url(#SVGID_00000024681596719371261310000003448393632271933336_);}
	.st13{clip-path:url(#SVGID_00000063617810374269195220000005370721359346972833_);}
	.st14{fill:url(#SVGID_00000066483135492782065680000017250479550759697814_);}
	.st15{fill:url(#SVGID_00000018940617286724785020000000762338847825957270_);}
	.st16{fill:url(#SVGID_00000148635697569029072120000008063759091604351882_);}
	.st17{fill:url(#SVGID_00000135649350021598105250000005107562670595985827_);}
	.st18{fill:url(#SVGID_00000146481673467935810950000007114550348616621725_);}
	.st19{fill:url(#SVGID_00000025436652719832318170000005018963644592777104_);}
	.st20{fill:url(#SVGID_00000051375981429154905450000011596922064200255404_);}
	.st21{fill:url(#SVGID_00000066504271580360808970000001544733819926221719_);}
	.st22{fill:url(#SVGID_00000129898541642446126610000013115298992226961597_);}
	.st23{fill:none;stroke:#BFDE42;stroke-width:10;stroke-miterlimit:10;}
	.st24{fill:none;stroke:url(#SVGID_00000111181330006365808680000016443747163998893975_);stroke-width:4;stroke-miterlimit:10;}
	.st25{fill:none;stroke:url(#SVGID_00000113324350209391554860000006904661680847486884_);stroke-width:4;stroke-miterlimit:10;}
	.st26{fill:none;stroke:url(#SVGID_00000038384698893959145270000000546841556249407904_);stroke-width:4;stroke-miterlimit:10;}
	.st27{fill:none;stroke:url(#SVGID_00000183931539924237644820000010772674379970199438_);stroke-width:4;stroke-miterlimit:10;}
	.st28{fill:none;stroke:url(#SVGID_00000110452226490118742600000012144332948517294485_);stroke-width:4;stroke-miterlimit:10;}
	.st29{fill:none;stroke:url(#SVGID_00000114788872855105291480000000653798700388571568_);stroke-width:4;stroke-miterlimit:10;}
	.st30{fill:none;stroke:url(#SVGID_00000003824747256495284180000005119192130619804844_);stroke-width:4;stroke-miterlimit:10;}
	.st31{fill:none;stroke:url(#SVGID_00000124135478393512968670000005501962598398675623_);stroke-width:4;stroke-miterlimit:10;}
	.st32{fill:#BFDE42;stroke:#BFDE42;stroke-miterlimit:10;}
	.st33{fill:url(#SVGID_00000141414010173812227220000008254493549097325716_);}
	.st34{fill:url(#SVGID_00000012467913232421999490000002870123401902823342_);}
	.st35{fill:url(#SVGID_00000151529863259362898570000003998985357259095984_);}
	.st36{fill:url(#SVGID_00000010994774622014112700000015917246565335420589_);}
	.st37{fill:url(#SVGID_00000171712668668942439760000002528679187939867794_);}
	.st38{fill:url(#SVGID_00000017487344589828076530000010983492383001185715_);}
	.st39{fill:url(#SVGID_00000067197547040139876700000011508435669636074627_);}
	.st40{fill:url(#SVGID_00000168097273790676098770000010008716104262169998_);}
	.st41{fill:#BFDE42;}
	.st42{fill:#606060;}
	.st43{fill:#81D134;}
	.st44{fill:#C12B2B;}
	.st45{fill:#FDFDFD;}
	.st46{fill:#FFFFFF;}
</style>
<path class="st42" d="M48,4.99C24.28,4.99,5.02,24.22,4.99,47.93C4.97,71.7,24.2,90.98,47.97,91C71.7,91.03,90.98,71.78,91,48.04
	C91.02,24.28,71.77,5,48,4.99z"/>
<g>
	<g>
		<path class="st46" d="M50.05,14c1.17,0.19,2.34,0.37,3.48,0.72c3.64,1.1,6.73,3.05,9.28,5.87c1.96,2.17,3.38,4.64,4.25,7.43
			c1.22,3.91,1.26,7.83,0.06,11.74c-1.73,5.61-5.29,9.68-10.53,12.29c-0.63,0.32-1.3,0.57-1.97,0.8c-0.46,0.16-0.63,0.39-0.63,0.89
			c0.03,2.01,0.02,4.01,0.01,6.02c-0.01,2.91-1.96,5.34-4.8,6c-2.68,0.62-5.55-0.79-6.77-3.35c-0.38-0.79-0.59-1.63-0.59-2.52
			c0.01-3.99-0.01-7.99,0.01-11.98c0.01-3.26,2.71-5.94,5.96-6.01c3.35-0.08,5.88-1.58,7.28-4.65c1.79-3.92,0.19-8.31-3.63-10.3
			c-4.54-2.37-10.24,0.37-11.25,5.39c-0.2,0.98-0.11,1.98-0.33,2.96c-0.53,2.44-2.87,5.01-6.61,4.75c-2.61-0.19-5.1-2.46-5.45-5.23
			c-0.17-1.38-0.03-2.76,0.21-4.13c0.75-4.27,2.61-8,5.76-10.98c2.57-2.44,5.55-4.21,9.03-5.1c0.98-0.25,1.98-0.39,2.97-0.58
			C47.21,14,48.63,14,50.05,14z"/>
		<path class="st46" d="M47.91,82.22c-3.4,0-6.07-2.68-6.07-6.08c0.01-3.31,2.76-6.02,6.12-6.01c3.33,0.01,6.04,2.74,6.04,6.09
			C54,79.57,51.31,82.22,47.91,82.22z"/>
	</g>
</g>
</svg>
